<?xml version="1.0" encoding="UTF-8"?>
<svg xmlns="http://www.w3.org/2000/svg" xmlns:xlink="http://www.w3.org/1999/xlink" width="32pt" height="32pt" viewBox="0 0 32 32" version="1.1">
<g id="surface1">
<path style=" stroke:none;fill-rule:nonzero;fill:rgb(100%,25.490196%,78.431373%);fill-opacity:1;" d="M 4 6.667969 C 4 5.195312 5.195312 4 6.667969 4 L 25.332031 4 C 26.804688 4 28 5.195312 28 6.667969 L 28 25.332031 C 28 26.804688 26.804688 28 25.332031 28 L 6.667969 28 C 5.195312 28 4 26.804688 4 25.332031 Z M 4 6.667969 "/>
<path style=" stroke:none;fill-rule:nonzero;fill:rgb(8.627451%,0.784314%,4.313725%);fill-opacity:1;" d="M 6 6 L 6 26 L 26 26 L 26 6 Z M 12.730469 14.464844 L 14.003906 11.207031 L 16.199219 11.207031 L 13.972656 15.910156 L 16.25 20.6875 L 14.03125 20.6875 L 12.730469 17.375 L 11.433594 20.6875 L 9.214844 20.6875 L 11.492188 15.910156 L 9.257812 11.207031 L 11.453125 11.207031 Z M 16.710938 16.949219 C 16.710938 15.796875 16.90625 14.933594 17.296875 14.367188 C 17.6875 13.796875 18.257812 13.511719 19.003906 13.511719 C 19.546875 13.511719 20 13.746094 20.359375 14.214844 L 20.359375 10.6875 L 22.214844 10.6875 L 22.214844 20.6875 L 20.539062 20.6875 L 20.457031 19.972656 C 20.078125 20.535156 19.59375 20.820312 18.996094 20.820312 C 18.261719 20.820312 17.695312 20.535156 17.308594 19.972656 C 16.917969 19.40625 16.71875 18.578125 16.710938 17.484375 Z M 18.5625 17.414062 C 18.5625 18.105469 18.636719 18.59375 18.785156 18.867188 C 18.929688 19.144531 19.179688 19.28125 19.53125 19.28125 C 19.898438 19.28125 20.171875 19.117188 20.359375 18.792969 L 20.359375 15.578125 C 20.175781 15.230469 19.902344 15.058594 19.539062 15.058594 C 19.199219 15.058594 18.953125 15.191406 18.796875 15.464844 C 18.640625 15.738281 18.5625 16.226562 18.5625 16.925781 Z M 18.5625 17.414062 "/>
</g>
</svg>
