<?xml version="1.0" encoding="UTF-8"?>
<svg xmlns="http://www.w3.org/2000/svg" xmlns:xlink="http://www.w3.org/1999/xlink" width="32pt" height="32pt" viewBox="0 0 32 32" version="1.1">
<g id="surface1">
<path style=" stroke:none;fill-rule:nonzero;fill:rgb(0%,0%,0%);fill-opacity:1;" d="M 10.621094 2.566406 C 10.128906 2.566406 9.917969 2.6875 9.59375 2.886719 C 9.265625 3.078125 8.933594 3.378906 8.644531 3.789062 C 8.066406 4.609375 7.679688 5.84375 7.679688 7.679688 C 7.679688 8.503906 7.746094 9.375 7.863281 10.273438 C 7.015625 10.472656 6.21875 10.707031 5.5 10.988281 C 4.371094 11.425781 3.414062 11.953125 2.667969 12.628906 C 1.921875 13.308594 1.363281 14.199219 1.308594 15.230469 C 1.261719 16.078125 1.554688 16.925781 2.039062 17.53125 C 2.523438 18.136719 3.113281 18.546875 3.769531 18.988281 C 4.359375 19.378906 5.15625 19.21875 5.546875 18.628906 C 5.9375 18.039062 5.777344 17.246094 5.191406 16.851562 C 4.59375 16.457031 4.203125 16.140625 4.039062 15.933594 C 3.871094 15.726562 3.847656 15.679688 3.863281 15.363281 C 3.875 15.171875 3.976562 14.898438 4.390625 14.523438 C 4.800781 14.148438 5.503906 13.730469 6.425781 13.371094 C 6.984375 13.15625 7.636719 12.960938 8.34375 12.792969 C 8.558594 13.675781 8.824219 14.566406 9.132812 15.457031 C 7.269531 18.898438 6.359375 21.910156 6.398438 24.339844 C 6.425781 25.789062 6.601562 27.398438 8.007812 28.308594 C 8.84375 28.851562 9.832031 28.921875 10.613281 28.769531 C 11.390625 28.617188 12.046875 28.3125 12.648438 28.0625 C 13.085938 27.898438 13.398438 27.507812 13.460938 27.046875 C 13.53125 26.585938 13.339844 26.121094 12.964844 25.84375 C 12.59375 25.5625 12.097656 25.503906 11.671875 25.699219 C 11.027344 25.960938 10.488281 26.183594 10.121094 26.257812 C 9.757812 26.328125 9.640625 26.316406 9.398438 26.164062 C 9.304688 26.101562 8.980469 25.433594 8.960938 24.300781 C 8.9375 22.9375 9.394531 20.96875 10.4375 18.613281 C 12.082031 22.023438 14.144531 24.894531 16.207031 26.835938 C 17.25 27.820312 18.289062 28.574219 19.351562 29.023438 C 20.414062 29.46875 21.601562 29.625 22.648438 29.09375 L 22.71875 29.058594 L 22.78125 29.011719 C 23.773438 28.34375 24.113281 27.246094 24.246094 26.160156 C 24.378906 25.078125 24.308594 23.878906 24.132812 22.632812 C 23.785156 20.136719 23.015625 17.453125 22.320312 15.558594 C 22.175781 15.113281 21.800781 14.785156 21.339844 14.699219 C 20.878906 14.613281 20.40625 14.785156 20.113281 15.148438 C 19.816406 15.511719 19.742188 16.007812 19.921875 16.441406 C 20.550781 18.164062 21.289062 20.761719 21.597656 22.988281 C 21.753906 24.101562 21.796875 25.125 21.707031 25.847656 C 21.625 26.503906 21.449219 26.726562 21.378906 26.796875 C 21.207031 26.863281 20.933594 26.914062 20.351562 26.664062 C 19.703125 26.390625 18.855469 25.8125 17.960938 24.972656 C 16.175781 23.289062 14.207031 20.582031 12.675781 17.371094 C 12.40625 16.808594 12.171875 16.238281 11.945312 15.667969 C 12.253906 15.132812 12.585938 14.585938 12.949219 14.03125 C 13.371094 13.378906 13.808594 12.753906 14.25 12.164062 C 14.835938 12.164062 15.441406 12.179688 16.058594 12.210938 C 19.621094 12.398438 22.863281 13.148438 25.097656 14.121094 C 26.210938 14.609375 27.070312 15.15625 27.574219 15.640625 C 28.074219 16.121094 28.171875 16.449219 28.160156 16.636719 C 28.136719 17.078125 27.664062 17.636719 26.519531 17.96875 C 25.84375 18.171875 25.453125 18.882812 25.648438 19.558594 C 25.851562 20.238281 26.5625 20.628906 27.238281 20.429688 C 29.003906 19.914062 30.621094 18.660156 30.71875 16.769531 C 30.78125 15.605469 30.171875 14.585938 29.34375 13.789062 C 28.519531 12.996094 27.425781 12.34375 26.121094 11.777344 C 23.539062 10.652344 20.113281 9.878906 16.335938 9.664062 C 16.9375 9.015625 17.539062 8.433594 18.121094 7.933594 C 19.808594 6.476562 21.390625 5.753906 22.128906 5.726562 C 22.398438 5.71875 22.53125 5.765625 22.640625 5.835938 C 22.863281 5.984375 22.925781 6.085938 22.953125 6.363281 C 22.980469 6.640625 22.898438 7.109375 22.570312 7.683594 C 22.328125 8.082031 22.328125 8.578125 22.558594 8.980469 C 22.789062 9.378906 23.21875 9.628906 23.683594 9.621094 C 24.144531 9.617188 24.570312 9.363281 24.789062 8.953125 C 25.316406 8.039062 25.59375 7.074219 25.5 6.113281 C 25.40625 5.160156 24.871094 4.234375 24.03125 3.691406 C 23.429688 3.296875 22.71875 3.144531 22.03125 3.171875 C 20.179688 3.238281 18.363281 4.339844 16.449219 5.992188 C 15.292969 6.988281 14.121094 8.214844 12.984375 9.621094 C 12.085938 9.65625 11.21875 9.722656 10.390625 9.824219 C 10.292969 9.066406 10.238281 8.34375 10.238281 7.679688 C 10.238281 6.207031 10.550781 5.523438 10.738281 5.261719 C 10.789062 5.191406 10.796875 5.199219 10.824219 5.171875 C 11.578125 5.214844 11.859375 5.453125 12.609375 6.09375 C 13.148438 6.550781 13.953125 6.488281 14.414062 5.953125 C 14.871094 5.414062 14.808594 4.605469 14.269531 4.144531 C 13.453125 3.449219 12.324219 2.566406 10.621094 2.566406 Z M 11 12.339844 C 10.972656 12.382812 10.941406 12.425781 10.914062 12.46875 C 10.902344 12.433594 10.886719 12.390625 10.878906 12.351562 C 10.921875 12.347656 10.960938 12.34375 11 12.339844 Z M 16 14.078125 C 14.941406 14.078125 14.078125 14.941406 14.078125 16 C 14.078125 17.058594 14.941406 17.921875 16 17.921875 C 17.058594 17.921875 17.921875 17.058594 17.921875 16 C 17.921875 14.941406 17.058594 14.078125 16 14.078125 Z M 16 14.078125 "/>
</g>
</svg>
