<?xml version="1.0" encoding="UTF-8"?>
<svg xmlns="http://www.w3.org/2000/svg" xmlns:xlink="http://www.w3.org/1999/xlink" width="32pt" height="32pt" viewBox="0 0 32 32" version="1.1">
<g id="surface1">
<path style=" stroke:none;fill-rule:nonzero;fill:rgb(96.078431%,48.627451%,0%);fill-opacity:1;" d="M 9.417969 23.457031 L 2.957031 18.375 L 6.167969 12.417969 L 15.375 16 Z M 9.417969 23.457031 "/>
<path style=" stroke:none;fill-rule:nonzero;fill:rgb(11.764706%,53.333333%,89.803922%);fill-opacity:1;" d="M 29.332031 9.792969 L 28.832031 25.207031 L 18.582031 29.332031 L 12.417969 25.332031 L 21.417969 16 Z M 29.332031 9.792969 "/>
<path style=" stroke:none;fill-rule:nonzero;fill:rgb(16.078431%,38.431373%,100%);fill-opacity:1;" d="M 29.332031 9.792969 L 21.207031 19.375 L 17.5 7.332031 L 21.042969 3.082031 Z M 29.332031 9.792969 "/>
<path style=" stroke:none;fill-rule:nonzero;fill:rgb(67.058824%,27.843137%,73.72549%);fill-opacity:1;" d="M 23.125 13.082031 L 15.5 24.792969 L 4.832031 28.667969 L 6.542969 22.667969 L 8.75 15.25 Z M 23.125 13.082031 "/>
<path style=" stroke:none;fill-rule:nonzero;fill:rgb(91.372549%,11.764706%,38.823529%);fill-opacity:1;" d="M 8.75 15.25 L 2.667969 13.207031 L 6.542969 2.667969 L 14.875 3.667969 L 23.125 13.082031 Z M 8.75 15.25 "/>
<path style=" stroke:none;fill-rule:nonzero;fill:rgb(0%,0%,0.392157%);fill-opacity:1;" d="M 7.332031 7.332031 L 24 7.332031 L 24 24 L 7.332031 24 Z M 7.332031 7.332031 "/>
<path style=" stroke:none;fill-rule:nonzero;fill:rgb(100%,100%,100%);fill-opacity:1;" d="M 9.332031 21 L 15.332031 21 L 15.332031 22 L 9.332031 22 Z M 13.667969 10.582031 L 13.667969 9.332031 L 10.332031 9.332031 L 10.332031 10.582031 L 11.332031 10.582031 L 11.332031 14.917969 L 10.332031 14.917969 L 10.332031 16.167969 L 13.667969 16.167969 L 13.667969 14.917969 L 12.773438 14.917969 L 12.773438 10.582031 Z M 16.917969 16.332031 C 15.667969 16.332031 15.003906 15.601562 14.75 15.300781 L 15.691406 14.230469 C 15.859375 14.417969 16.332031 14.917969 16.917969 14.917969 C 17.667969 14.917969 17.832031 14.167969 17.832031 13.75 L 17.832031 9.332031 L 19.332031 9.332031 L 19.332031 13.75 C 19.332031 14.164062 19.332031 14.832031 18.832031 15.5 C 18.484375 15.964844 17.667969 16.332031 16.917969 16.332031 Z M 16.917969 16.332031 "/>
</g>
</svg>
