<?xml version="1.0" encoding="UTF-8"?>
<svg xmlns="http://www.w3.org/2000/svg" xmlns:xlink="http://www.w3.org/1999/xlink" width="32pt" height="32pt" viewBox="0 0 32 32" version="1.1">
<g id="surface1">
<path style=" stroke:none;fill-rule:nonzero;fill:rgb(95.686275%,26.27451%,21.176471%);fill-opacity:1;" d="M 15.765625 16.597656 C 15.101562 15.527344 14.617188 14.636719 13.949219 12.960938 C 12.820312 10.132812 20.828125 7.578125 17.578125 2.664062 C 18.988281 6.058594 12.527344 8.15625 11.929688 10.980469 C 11.378906 13.578125 15.761719 16.597656 15.765625 16.597656 Z M 15.765625 16.597656 "/>
<path style=" stroke:none;fill-rule:nonzero;fill:rgb(95.686275%,26.27451%,21.176471%);fill-opacity:1;" d="M 15.917969 11.511719 C 15.789062 13.191406 17.40625 14.085938 17.453125 15.308594 C 17.488281 16.308594 16.488281 17.136719 16.488281 17.136719 C 16.488281 17.136719 18.304688 16.78125 18.871094 15.261719 C 19.503906 13.570312 17.648438 12.414062 17.839844 11.0625 C 18.019531 9.769531 21.863281 7.367188 21.863281 7.367188 C 21.863281 7.367188 16.207031 7.742188 15.917969 11.511719 Z M 15.917969 11.511719 "/>
<path style=" stroke:none;fill-rule:nonzero;fill:rgb(8.235294%,39.607843%,75.294118%);fill-opacity:1;" d="M 21.390625 16.703125 C 22.558594 16.441406 23.542969 17.183594 23.542969 18.042969 C 23.542969 19.976562 20.863281 21.804688 20.863281 21.804688 C 20.863281 21.804688 25.015625 21.3125 25.015625 18.136719 C 25.015625 16.035156 22.976562 15.511719 21.390625 16.703125 Z M 19.417969 18.261719 C 19.417969 18.261719 20.714844 17.339844 21.058594 16.996094 C 17.882812 17.667969 10.632812 17.761719 10.632812 17.175781 C 10.632812 16.636719 12.96875 16.082031 12.96875 16.082031 C 12.96875 16.082031 7.789062 16.007812 7.789062 17.535156 C 7.789062 19.128906 14.570312 19.242188 19.417969 18.261719 Z M 19.417969 18.261719 "/>
<path style=" stroke:none;fill-rule:nonzero;fill:rgb(8.235294%,39.607843%,75.294118%);fill-opacity:1;" d="M 18.625 19.714844 C 15.617188 20.714844 10.082031 20.394531 11.71875 19.050781 C 10.921875 19.050781 9.738281 19.695312 9.738281 20.3125 C 9.738281 21.550781 15.726562 22.503906 20.15625 20.691406 Z M 18.625 19.714844 "/>
<path style=" stroke:none;fill-rule:nonzero;fill:rgb(8.235294%,39.607843%,75.294118%);fill-opacity:1;" d="M 12.457031 21.824219 C 11.367188 21.824219 10.660156 22.527344 10.660156 23.039062 C 10.660156 24.632812 17.167969 24.796875 19.746094 23.175781 L 18.105469 22.089844 C 16.179688 22.9375 11.34375 23.050781 12.457031 21.824219 Z M 12.457031 21.824219 "/>
<path style=" stroke:none;fill-rule:nonzero;fill:rgb(8.235294%,39.607843%,75.294118%);fill-opacity:1;" d="M 24.1875 24.421875 C 24.1875 23.796875 23.484375 23.503906 23.230469 23.363281 C 24.71875 26.945312 8.355469 26.667969 8.355469 24.550781 C 8.355469 24.070312 9.558594 23.601562 10.671875 23.824219 L 9.726562 23.265625 C 7.507812 22.914062 6 23.890625 6 24.679688 C 6 28.347656 24.1875 28.171875 24.1875 24.421875 Z M 24.1875 24.421875 "/>
<path style=" stroke:none;fill-rule:nonzero;fill:rgb(8.235294%,39.607843%,75.294118%);fill-opacity:1;" d="M 26 25.734375 C 23.234375 28.464844 16.226562 29.460938 9.179688 27.773438 C 16.226562 30.777344 25.964844 29.085938 26 25.734375 Z M 26 25.734375 "/>
</g>
</svg>
