<?xml version="1.0" encoding="UTF-8"?>
<svg xmlns="http://www.w3.org/2000/svg" xmlns:xlink="http://www.w3.org/1999/xlink" width="32pt" height="32pt" viewBox="0 0 32 32" version="1.1">
<g id="surface1">
<path style=" stroke:none;fill-rule:nonzero;fill:rgb(17.647059%,57.254902%,83.137255%);fill-opacity:1;" d="M 28.171875 4 L 10.496094 4 C 9.855469 4 9.332031 4.519531 9.332031 5.164062 L 9.332031 10.003906 L 29.332031 10.003906 L 29.332031 5.164062 C 29.332031 4.519531 28.8125 4 28.171875 4 Z M 28.171875 4 "/>
<path style=" stroke:none;fill-rule:nonzero;fill:rgb(12.941176%,31.372549%,66.27451%);fill-opacity:1;" d="M 9.332031 22.035156 L 9.332031 26.835938 C 9.332031 27.480469 9.855469 28 10.496094 28 L 28.171875 28 C 28.8125 28 29.332031 27.480469 29.332031 26.835938 L 29.332031 22.035156 Z M 9.332031 22.035156 "/>
<path style=" stroke:none;fill-rule:nonzero;fill:rgb(17.647059%,51.372549%,83.137255%);fill-opacity:1;" d="M 9.332031 10.003906 L 29.332031 10.003906 L 29.332031 16.003906 L 9.332031 16.003906 Z M 9.332031 10.003906 "/>
<path style=" stroke:none;fill-rule:nonzero;fill:rgb(18.039216%,43.921569%,78.823529%);fill-opacity:1;" d="M 9.332031 16.003906 L 29.332031 16.003906 L 29.332031 22.035156 L 9.332031 22.035156 Z M 9.332031 16.003906 "/>
<path style=" stroke:none;fill-rule:nonzero;fill:rgb(0%,28.235294%,55.294118%);fill-opacity:1;" d="M 14.878906 22.667969 L 3.789062 22.667969 C 3.167969 22.667969 2.667969 22.164062 2.667969 21.546875 L 2.667969 10.453125 C 2.667969 9.835938 3.167969 9.332031 3.789062 9.332031 L 14.878906 9.332031 C 15.496094 9.332031 16 9.835938 16 10.453125 L 16 21.546875 C 16 22.164062 15.496094 22.667969 14.878906 22.667969 Z M 14.878906 22.667969 "/>
<path style=" stroke:none;fill-rule:nonzero;fill:rgb(100%,100%,100%);fill-opacity:1;" d="M 12.269531 12.667969 L 11.238281 17.507812 L 10.097656 12.667969 L 8.636719 12.667969 L 7.460938 17.660156 L 6.398438 12.667969 L 5.09375 12.667969 L 6.65625 19.332031 L 8.226562 19.332031 L 9.367188 14.207031 L 10.507812 19.332031 L 12.011719 19.332031 L 13.574219 12.667969 Z M 12.269531 12.667969 "/>
</g>
</svg>
