<?xml version="1.0" encoding="UTF-8"?>
<svg xmlns="http://www.w3.org/2000/svg" xmlns:xlink="http://www.w3.org/1999/xlink" width="32pt" height="32pt" viewBox="0 0 32 32" version="1.1">
<g id="surface1">
<path style=" stroke:none;fill-rule:nonzero;fill:rgb(70.980392%,76.862745%,87.843137%);fill-opacity:1;" d="M 16 7 C 7.441406 7 0.5 11.070312 0.5 16.085938 C 0.5 21.105469 7.441406 25.175781 16 25.175781 C 24.558594 25.175781 31.5 21.105469 31.5 16.085938 C 31.5 11.070312 24.558594 7 16 7 Z M 16 7 "/>
<path style=" stroke:none;fill-rule:nonzero;fill:rgb(80.784314%,85.098039%,92.941176%);fill-opacity:1;" d="M 16 7 C 7.441406 7 0.5 11.070312 0.5 16.085938 C 0.5 21.105469 7.441406 25.175781 16 25.175781 C 24.558594 25.175781 31.5 21.105469 31.5 16.085938 C 31.5 11.070312 24.558594 7 16 7 Z M 16 22.675781 C 8.339844 22.675781 3 19.203125 3 16.085938 C 3 12.972656 8.339844 9.5 16 9.5 C 23.660156 9.5 29 12.972656 29 16.085938 C 29 19.203125 23.660156 22.675781 16 22.675781 Z M 16 22.675781 "/>
<path style=" stroke:none;fill-rule:nonzero;fill:rgb(55.294118%,42.352941%,61.960784%);fill-opacity:1;" d="M 21.21875 13.21875 L 19.851562 20.628906 L 21.632812 20.628906 L 21.988281 18.609375 L 23.097656 18.609375 C 25.421875 18.609375 26.683594 18.070312 27.15625 16.078125 C 27.5625 14.367188 26.523438 13.21875 24.8125 13.21875 Z M 23.394531 17.261719 L 22.242188 17.261719 L 22.75 14.566406 L 24.136719 14.566406 C 25.289062 14.566406 25.53125 15.085938 25.472656 15.660156 C 25.316406 17.148438 24.390625 17.261719 23.394531 17.261719 Z M 7.066406 13.21875 L 5.699219 20.628906 L 7.480469 20.628906 L 7.835938 18.609375 L 8.945312 18.609375 C 11.269531 18.609375 12.53125 18.070312 13.003906 16.078125 C 13.410156 14.367188 12.371094 13.21875 10.660156 13.21875 Z M 9.242188 17.261719 L 8.089844 17.261719 L 8.597656 14.566406 L 9.984375 14.566406 C 11.136719 14.566406 11.378906 15.085938 11.320312 15.660156 C 11.164062 17.148438 10.238281 17.261719 9.242188 17.261719 Z M 19.65625 13.707031 C 19.273438 13.359375 18.601562 13.21875 17.601562 13.21875 L 16.027344 13.21875 L 16.589844 10.523438 L 14.820312 10.523438 L 13.128906 18.609375 L 14.898438 18.609375 L 15.753906 14.566406 L 17.167969 14.566406 C 17.617188 14.566406 17.914062 14.640625 18.054688 14.789062 C 18.191406 14.941406 18.222656 15.222656 18.140625 15.632812 L 17.496094 18.609375 L 19.292969 18.609375 L 19.992188 15.390625 C 20.144531 14.617188 20.03125 14.050781 19.65625 13.707031 Z M 19.65625 13.707031 "/>
<path style=" stroke:none;fill-rule:nonzero;fill:rgb(55.294118%,42.352941%,62.352941%);fill-opacity:1;" d="M 16 25.675781 C 7.175781 25.675781 0 21.371094 0 16.085938 C 0 10.800781 7.175781 6.5 16 6.5 C 24.824219 6.5 32 10.800781 32 16.085938 C 32 21.371094 24.824219 25.675781 16 25.675781 Z M 16 7.5 C 7.730469 7.5 1 11.351562 1 16.085938 C 1 20.820312 7.730469 24.675781 16 24.675781 C 24.269531 24.675781 31 20.820312 31 16.085938 C 31 11.351562 24.269531 7.5 16 7.5 Z M 29.347656 25.332031 C 29.179688 25.332031 29.019531 25.253906 28.925781 25.101562 L 28.386719 24.257812 C 28.238281 24.027344 28.308594 23.714844 28.539062 23.566406 C 28.773438 23.421875 29.082031 23.488281 29.230469 23.722656 L 29.769531 24.566406 C 29.917969 24.796875 29.847656 25.105469 29.613281 25.253906 C 29.53125 25.308594 29.4375 25.332031 29.347656 25.332031 Z M 27.222656 26.503906 C 27.035156 26.503906 26.855469 26.394531 26.769531 26.214844 L 26.34375 25.3125 C 26.226562 25.0625 26.332031 24.761719 26.582031 24.644531 C 26.832031 24.527344 27.128906 24.636719 27.246094 24.882812 L 27.675781 25.789062 C 27.792969 26.039062 27.683594 26.335938 27.4375 26.453125 C 27.367188 26.488281 27.292969 26.503906 27.222656 26.503906 Z M 24.984375 27.410156 C 24.777344 27.410156 24.582031 27.277344 24.511719 27.070312 L 24.183594 26.125 C 24.09375 25.867188 24.234375 25.582031 24.492188 25.492188 C 24.753906 25.402344 25.039062 25.539062 25.128906 25.800781 L 25.457031 26.746094 C 25.546875 27.007812 25.410156 27.289062 25.148438 27.382812 C 25.09375 27.398438 25.039062 27.410156 24.984375 27.410156 Z M 22.671875 28.085938 C 22.445312 28.085938 22.242188 27.929688 22.1875 27.703125 L 21.953125 26.730469 C 21.886719 26.460938 22.050781 26.191406 22.320312 26.128906 C 22.585938 26.0625 22.859375 26.226562 22.921875 26.496094 L 23.15625 27.46875 C 23.222656 27.734375 23.058594 28.007812 22.789062 28.070312 C 22.75 28.082031 22.710938 28.085938 22.671875 28.085938 Z M 20.308594 28.546875 C 20.066406 28.546875 19.851562 28.367188 19.816406 28.121094 L 19.667969 27.128906 C 19.628906 26.859375 19.816406 26.601562 20.089844 26.5625 C 20.367188 26.523438 20.617188 26.710938 20.65625 26.984375 L 20.804688 27.972656 C 20.847656 28.246094 20.660156 28.5 20.386719 28.539062 C 20.359375 28.542969 20.335938 28.546875 20.308594 28.546875 Z M 17.921875 28.796875 C 17.660156 28.796875 17.4375 28.59375 17.421875 28.328125 L 17.359375 27.332031 C 17.339844 27.054688 17.550781 26.820312 17.824219 26.800781 C 18.097656 26.785156 18.339844 26.992188 18.355469 27.265625 L 18.421875 28.265625 C 18.4375 28.539062 18.230469 28.777344 17.953125 28.796875 C 17.941406 28.796875 17.929688 28.796875 17.921875 28.796875 Z M 17.921875 28.796875 "/>
<path style=" stroke:none;fill-rule:nonzero;fill:rgb(55.294118%,42.352941%,62.352941%);fill-opacity:1;" d="M 10.929688 10.582031 C 10.707031 10.582031 10.503906 10.429688 10.445312 10.199219 C 10.378906 9.933594 10.542969 9.660156 10.808594 9.59375 C 11.484375 9.429688 12.195312 9.285156 12.921875 9.171875 C 13.195312 9.128906 13.449219 9.316406 13.492188 9.589844 C 13.535156 9.863281 13.347656 10.117188 13.078125 10.160156 C 12.375 10.269531 11.695312 10.40625 11.050781 10.566406 C 11.011719 10.574219 10.972656 10.582031 10.929688 10.582031 Z M 10.929688 10.582031 "/>
<path style=" stroke:none;fill-rule:nonzero;fill:rgb(55.294118%,42.352941%,62.352941%);fill-opacity:1;" d="M 3.5 15 C 3.417969 15 3.335938 14.976562 3.257812 14.9375 C 3.019531 14.804688 2.929688 14.503906 3.0625 14.261719 C 3.117188 14.160156 4.445312 11.796875 8.773438 10.214844 C 9.03125 10.121094 9.320312 10.253906 9.414062 10.511719 C 9.507812 10.773438 9.375 11.058594 9.117188 11.152344 C 5.175781 12.59375 3.949219 14.71875 3.9375 14.742188 C 3.847656 14.90625 3.675781 15 3.5 15 Z M 3.5 15 "/>
</g>
</svg>
