<?xml version="1.0" encoding="UTF-8"?>
<svg xmlns="http://www.w3.org/2000/svg" xmlns:xlink="http://www.w3.org/1999/xlink" width="32pt" height="32pt" viewBox="0 0 32 32" version="1.1">
<defs>
<linearGradient id="linear0" gradientUnits="userSpaceOnUse" x1="15.775" y1="-0.718" x2="33.488" y2="47.947" gradientTransform="matrix(0.666667,0,0,0.666667,0,0)">
<stop offset="0" style="stop-color:rgb(97.647059%,97.647059%,97.647059%);stop-opacity:1;"/>
<stop offset="0.26" style="stop-color:rgb(94.117647%,94.509804%,94.901961%);stop-opacity:1;"/>
<stop offset="0.678" style="stop-color:rgb(85.098039%,86.27451%,87.45098%);stop-opacity:1;"/>
<stop offset="1" style="stop-color:rgb(76.078431%,78.431373%,80%);stop-opacity:1;"/>
</linearGradient>
<linearGradient id="linear1" gradientUnits="userSpaceOnUse" x1="15.787" y1="2.487" x2="33.496" y2="51.143" gradientTransform="matrix(0.666667,0,0,0.666667,0,0)">
<stop offset="0" style="stop-color:rgb(42.745098%,42.745098%,42.745098%);stop-opacity:1;"/>
<stop offset="0.126" style="stop-color:rgb(38.431373%,38.431373%,38.431373%);stop-opacity:1;"/>
<stop offset="0.987" style="stop-color:rgb(27.45098%,27.45098%,27.45098%);stop-opacity:1;"/>
<stop offset="0.998" style="stop-color:rgb(27.058824%,27.058824%,27.058824%);stop-opacity:1;"/>
</linearGradient>
<linearGradient id="linear2" gradientUnits="userSpaceOnUse" x1="24.287" y1="8.739" x2="24.287" y2="29.283" gradientTransform="matrix(0.666667,0,0,0.666667,0,0)">
<stop offset="0" style="stop-color:rgb(95.686275%,30.980392%,35.294118%);stop-opacity:1;"/>
<stop offset="0.443" style="stop-color:rgb(93.333333%,23.921569%,29.019608%);stop-opacity:1;"/>
<stop offset="1" style="stop-color:rgb(89.803922%,12.54902%,18.823529%);stop-opacity:1;"/>
</linearGradient>
<filter id="alpha" filterUnits="objectBoundingBox" x="0%" y="0%" width="100%" height="100%">
  <feColorMatrix type="matrix" in="SourceGraphic" values="0 0 0 0 1 0 0 0 0 1 0 0 0 0 1 0 0 0 1 0"/>
</filter>
<mask id="mask0">
  <g filter="url(#alpha)">
<rect x="0" y="0" width="32" height="32" style="fill:rgb(0%,0%,0%);fill-opacity:0.0509804;stroke:none;"/>
  </g>
</mask>
<clipPath id="clip1">
  <rect x="0" y="0" width="32" height="32"/>
</clipPath>
<g id="surface5" clip-path="url(#clip1)">
<path style=" stroke:none;fill-rule:nonzero;fill:rgb(0%,0%,0%);fill-opacity:1;" d="M 26.671875 11.992188 C 26.246094 11.566406 25.667969 11.339844 24.992188 11.339844 C 23.992188 11.339844 22.886719 11.851562 22.035156 12.707031 C 21.332031 13.40625 20.867188 14.273438 20.71875 15.125 C 20.351562 15.472656 19.8125 15.941406 19.40625 15.992188 C 19.054688 15.8125 18.121094 14.898438 17.800781 14.585938 C 16.3125 13.140625 14.464844 11.332031 12 11.332031 C 9.734375 11.332031 8.046875 13.058594 6.09375 15.066406 L 6.035156 15.125 C 5.808594 15.359375 5.574219 15.601562 5.332031 15.839844 L 5.414062 16.226562 L 5.507812 16.648438 L 5.632812 17.238281 L 7.140625 18.746094 L 7.605469 19.21875 L 8.078125 18.746094 C 8.378906 18.445312 8.667969 18.152344 8.953125 17.859375 C 9.933594 16.851562 11.421875 15.332031 12 15.332031 C 12.839844 15.332031 14.039062 16.507812 15.007812 17.445312 C 16.292969 18.707031 17.621094 20 19.332031 20 C 21.171875 20 22.488281 18.964844 23.566406 17.941406 C 24.40625 17.792969 25.265625 17.328125 25.960938 16.632812 C 26.253906 16.339844 26.5 16.027344 26.699219 15.699219 L 27.140625 13.632812 C 27.199219 13.605469 27.261719 13.578125 27.320312 13.554688 C 27.300781 12.945312 27.085938 12.40625 26.671875 11.992188 Z M 19.332031 19.332031 C 17.894531 19.332031 16.71875 18.1875 15.472656 16.972656 C 14.367188 15.894531 13.105469 14.667969 12 14.667969 C 11.140625 14.667969 9.785156 16.054688 8.472656 17.394531 C 8.191406 17.6875 7.90625 17.980469 7.605469 18.273438 L 5.726562 16.394531 C 6.011719 16.101562 6.292969 15.8125 6.566406 15.535156 C 8.421875 13.640625 10.011719 12 12 12 C 14.191406 12 15.933594 13.699219 17.332031 15.066406 C 17.941406 15.660156 18.960938 16.648438 19.332031 16.667969 C 20.007812 16.667969 20.667969 16.105469 21.351562 15.445312 C 21.421875 14.707031 21.808594 13.875 22.5 13.179688 C 23.265625 12.421875 24.199219 12.007812 24.992188 12.007812 C 25.464844 12.007812 25.894531 12.152344 26.199219 12.464844 C 27.027344 13.285156 26.707031 14.945312 25.488281 16.167969 C 24.808594 16.847656 23.992188 17.234375 23.261719 17.3125 C 22.265625 18.265625 21.039062 19.332031 19.332031 19.332031 Z M 19.332031 19.332031 "/>
</g>
<mask id="mask1">
  <g filter="url(#alpha)">
<rect x="0" y="0" width="32" height="32" style="fill:rgb(0%,0%,0%);fill-opacity:0.0705882;stroke:none;"/>
  </g>
</mask>
<clipPath id="clip2">
  <rect x="0" y="0" width="32" height="32"/>
</clipPath>
<g id="surface8" clip-path="url(#clip2)">
<path style=" stroke:none;fill-rule:nonzero;fill:rgb(0%,0%,0%);fill-opacity:1;" d="M 26.441406 12.226562 C 26.074219 11.867188 25.574219 11.671875 24.992188 11.671875 C 24.078125 11.671875 23.058594 12.148438 22.265625 12.945312 C 21.585938 13.625 21.140625 14.472656 21.035156 15.285156 C 20.464844 15.828125 19.867188 16.332031 19.332031 16.332031 C 19.054688 16.28125 17.933594 15.1875 17.566406 14.828125 C 16.125 13.421875 14.328125 11.667969 12 11.667969 C 9.875 11.667969 8.234375 13.347656 6.332031 15.300781 L 6.273438 15.359375 C 6.011719 15.621094 5.753906 15.886719 5.488281 16.152344 L 5.414062 16.226562 L 5.507812 16.648438 L 7.375 18.511719 L 7.605469 18.746094 L 7.847656 18.511719 C 8.140625 18.214844 8.433594 17.921875 8.714844 17.625 C 9.859375 16.453125 11.28125 15 12 15 C 12.972656 15 14.171875 16.171875 15.238281 17.214844 C 16.535156 18.472656 17.753906 19.667969 19.332031 19.667969 C 21.09375 19.667969 22.359375 18.625 23.40625 17.625 C 24.21875 17.511719 25.054688 17.066406 25.71875 16.398438 C 26.359375 15.765625 26.785156 14.992188 26.941406 14.226562 C 27.09375 13.421875 26.921875 12.707031 26.441406 12.226562 Z M 25.488281 16.167969 C 24.808594 16.847656 23.992188 17.234375 23.261719 17.3125 C 22.265625 18.265625 21.039062 19.332031 19.332031 19.332031 C 17.894531 19.332031 16.71875 18.1875 15.472656 16.972656 C 14.367188 15.894531 13.105469 14.667969 12 14.667969 C 11.140625 14.667969 9.785156 16.054688 8.472656 17.394531 C 8.191406 17.6875 7.90625 17.980469 7.605469 18.273438 L 5.726562 16.394531 C 6.011719 16.101562 6.292969 15.8125 6.566406 15.535156 C 8.421875 13.640625 10.011719 12 12 12 C 14.191406 12 15.933594 13.699219 17.332031 15.066406 C 17.941406 15.660156 18.960938 16.648438 19.332031 16.667969 C 20.007812 16.667969 20.667969 16.105469 21.351562 15.445312 C 21.421875 14.707031 21.808594 13.875 22.5 13.179688 C 23.265625 12.421875 24.199219 12.007812 24.992188 12.007812 C 25.464844 12.007812 25.894531 12.152344 26.199219 12.464844 C 27.027344 13.285156 26.707031 14.945312 25.488281 16.167969 Z M 25.488281 16.167969 "/>
</g>
</defs>
<g id="surface1">
<path style=" stroke:none;fill-rule:nonzero;fill:url(#linear0);" d="M 16 26.667969 L 24.667969 22 L 26.667969 12.667969 L 20.894531 5.332031 L 11.105469 5.332031 L 5.332031 12.667969 L 7.332031 22 Z M 16 26.667969 "/>
<path style=" stroke:none;fill-rule:nonzero;fill:url(#linear1);" d="M 25.476562 21.398438 L 27.140625 13.636719 C 28.773438 12.886719 30.246094 12.21875 30.914062 11.953125 L 30.417969 10.714844 C 29.796875 10.964844 28.574219 11.511719 27.128906 12.175781 L 21.757812 5.351562 C 22.910156 3.382812 23.886719 1.707031 23.910156 1.667969 L 22.757812 0.996094 C 22.734375 1.035156 21.761719 2.703125 20.613281 4.667969 L 11.886719 4.667969 C 11.558594 3.527344 11.144531 2.34375 10.617188 1.078125 L 9.382812 1.589844 C 9.875 2.769531 10.265625 3.871094 10.574219 4.929688 L 4.96875 12.050781 C 3.847656 12.058594 2.800781 12.039062 1.949219 12.019531 C 1.4375 12.007812 1 12 0.667969 12 L 0.667969 13.332031 C 0.992188 13.332031 1.421875 13.34375 1.921875 13.351562 C 2.660156 13.367188 3.542969 13.386719 4.496094 13.386719 C 4.597656 13.386719 4.703125 13.386719 4.804688 13.386719 L 6.527344 21.414062 C 5.109375 22.683594 3.574219 23.925781 2.296875 24.777344 L 3.035156 25.886719 C 4.257812 25.074219 5.734375 23.894531 7.144531 22.652344 L 15.425781 27.113281 C 15.375 28.457031 15.332031 29.84375 15.332031 31.332031 L 16.667969 31.332031 C 16.667969 29.8125 16.707031 28.386719 16.761719 27.011719 L 24.847656 22.660156 C 25.78125 23.628906 26.730469 24.523438 27.589844 25.191406 L 28.410156 24.140625 C 27.480469 23.417969 26.460938 22.4375 25.476562 21.398438 Z M 24.375 20.1875 C 23.046875 18.683594 21.898438 17.207031 21.296875 16.308594 C 22.417969 15.808594 24.003906 15.078125 25.546875 14.367188 C 25.574219 14.355469 25.601562 14.34375 25.628906 14.332031 Z M 25.882812 12.746094 C 25.589844 12.882812 25.289062 13.019531 24.988281 13.15625 C 23.390625 13.894531 21.75 14.648438 20.632812 15.144531 L 18.433594 11.019531 C 18.96875 10.113281 20.007812 8.347656 21.035156 6.589844 Z M 16.210938 19.179688 L 12.050781 16.960938 L 12.601562 12.570312 L 17.304688 11.738281 L 19.511719 15.878906 Z M 19.835938 6 C 18.800781 7.769531 17.765625 9.53125 17.25 10.398438 L 12.71875 11.195312 C 12.804688 9.515625 12.648438 7.816406 12.230469 6 Z M 10.992188 6.554688 C 11.363281 8.273438 11.488281 9.882812 11.375 11.46875 C 9.96875 11.796875 8.3125 11.949219 6.695312 12.011719 Z M 6.164062 13.363281 C 7.859375 13.316406 9.644531 13.183594 11.21875 12.867188 L 10.691406 17.09375 C 10.230469 17.804688 9.074219 19.039062 7.664062 20.371094 Z M 8.195312 21.707031 C 9.613281 20.398438 10.847656 19.113281 11.539062 18.199219 L 15.660156 20.394531 C 15.648438 21.824219 15.585938 23.316406 15.515625 24.894531 C 15.507812 25.136719 15.496094 25.386719 15.484375 25.632812 Z M 16.828125 25.464844 C 16.835938 25.296875 16.839844 25.125 16.847656 24.953125 C 16.921875 23.316406 16.988281 21.769531 16.992188 20.28125 L 20.203125 17.070312 C 20.960938 18.199219 22.359375 19.960938 23.902344 21.65625 Z M 16.828125 25.464844 "/>
<path style=" stroke:none;fill-rule:nonzero;fill:url(#linear2);" d="M 26.203125 12.464844 C 25.378906 11.640625 23.722656 11.960938 22.503906 13.179688 C 21.808594 13.875 21.417969 14.703125 21.351562 15.445312 C 20.664062 16.105469 20.003906 16.667969 19.335938 16.667969 C 18.957031 16.648438 17.941406 15.65625 17.335938 15.066406 C 15.933594 13.699219 14.195312 12 12 12 C 10.015625 12 8.417969 13.636719 6.566406 15.53125 C 6.292969 15.816406 6.011719 16.101562 5.722656 16.390625 L 7.609375 18.277344 C 7.90625 17.980469 8.195312 17.683594 8.476562 17.394531 C 9.785156 16.054688 11.136719 14.667969 12 14.667969 C 13.109375 14.667969 14.363281 15.890625 15.472656 16.972656 C 16.714844 18.1875 17.890625 19.332031 19.332031 19.332031 C 21.042969 19.332031 22.265625 18.265625 23.257812 17.3125 C 23.992188 17.234375 24.804688 16.84375 25.484375 16.164062 C 26.707031 14.945312 27.027344 13.289062 26.203125 12.464844 Z M 26.203125 12.464844 "/>
<use xlink:href="#surface5" mask="url(#mask0)"/>
<use xlink:href="#surface8" mask="url(#mask1)"/>
</g>
</svg>
