<?xml version="1.0" encoding="UTF-8"?>
<svg xmlns="http://www.w3.org/2000/svg" xmlns:xlink="http://www.w3.org/1999/xlink" width="32pt" height="32pt" viewBox="0 0 32 32" version="1.1">
<g id="surface1">
<path style=" stroke:none;fill-rule:nonzero;fill:rgb(16.078431%,71.372549%,96.470588%);fill-opacity:1;" d="M 29.332031 7.40625 L 29.332031 24.59375 C 29.332031 25.441406 28.808594 26.191406 28.011719 26.472656 L 22.132812 29.234375 L 22.667969 22 L 22.667969 10 L 22.132812 2.765625 L 28.011719 5.527344 C 28.808594 5.808594 29.332031 6.558594 29.332031 7.40625 Z M 29.332031 7.40625 "/>
<path style=" stroke:none;fill-rule:nonzero;fill:rgb(0.784314%,46.666667%,74.117647%);fill-opacity:1;" d="M 6 22.597656 L 22.667969 10 L 22.667969 3.570312 C 22.667969 2.769531 21.679688 2.398438 21.148438 2.996094 L 3.105469 19.492188 C 2.503906 20.046875 2.539062 21.003906 3.175781 21.515625 C 3.175781 21.515625 4.058594 22.335938 4.378906 22.5625 C 4.871094 22.914062 5.515625 22.953125 6 22.597656 Z M 6 22.597656 "/>
<path style=" stroke:none;fill-rule:nonzero;fill:rgb(0.784314%,53.333333%,81.960784%);fill-opacity:1;" d="M 6 9.402344 L 22.667969 22 L 22.667969 28.429688 C 22.667969 29.230469 21.679688 29.601562 21.148438 29.003906 L 3.105469 12.507812 C 2.503906 11.953125 2.539062 10.996094 3.175781 10.484375 C 3.175781 10.484375 4.058594 9.664062 4.378906 9.4375 C 4.871094 9.085938 5.515625 9.046875 6 9.402344 Z M 6 9.402344 "/>
</g>
</svg>
