<?xml version="1.0" encoding="UTF-8"?>
<svg xmlns="http://www.w3.org/2000/svg" xmlns:xlink="http://www.w3.org/1999/xlink" width="32pt" height="32pt" viewBox="0 0 32 32" version="1.1">
<g id="surface1">
<path style=" stroke:none;fill-rule:nonzero;fill:rgb(80.784314%,57.647059%,84.705882%);fill-opacity:1;" d="M 29.332031 7.40625 L 29.332031 24.59375 C 29.332031 25.441406 28.808594 26.191406 28.011719 26.472656 L 22.132812 29.234375 L 22.667969 22 L 22.667969 10 L 22.132812 2.765625 L 28.011719 5.527344 C 28.808594 5.808594 29.332031 6.558594 29.332031 7.40625 Z M 29.332031 7.40625 "/>
<path style=" stroke:none;fill-rule:nonzero;fill:rgb(55.686275%,14.117647%,66.666667%);fill-opacity:1;" d="M 2.945312 22.542969 L 5.050781 23.84375 C 5.539062 24.136719 6.160156 24.085938 6.59375 23.71875 L 22.667969 10.625 L 22.667969 3.570312 C 22.667969 2.769531 21.679688 2.398438 21.148438 2.996094 L 6 19.914062 Z M 2.945312 22.542969 "/>
<path style=" stroke:none;fill-rule:nonzero;fill:rgb(67.058824%,27.843137%,73.72549%);fill-opacity:1;" d="M 2.945312 9.457031 L 5.050781 8.15625 C 5.539062 7.863281 6.160156 7.914062 6.59375 8.28125 L 22.667969 21.375 L 22.667969 28.433594 C 22.667969 29.230469 21.679688 29.605469 21.148438 29.003906 L 6 12.085938 Z M 2.945312 9.457031 "/>
<path style=" stroke:none;fill-rule:nonzero;fill:rgb(41.568627%,10.588235%,60.392157%);fill-opacity:1;" d="M 6 12.085938 L 6 19.914062 L 3.867188 22.40625 C 3.480469 22.914062 2.667969 22.640625 2.667969 22 L 2.667969 10 C 2.667969 9.359375 3.480469 9.085938 3.867188 9.59375 Z M 6 12.085938 "/>
</g>
</svg>
